<svg width="347" height="542" viewBox="0 0 347 542" fill="none" xmlns="http://www.w3.org/2000/svg">
<path d="M320.592 353.662H211.011V527.537H320.592V353.662Z" fill="#B2B2B2"/>
<path d="M211.438 353.662H101.857V527.537H211.438V353.662Z" fill="#D1D1D1"/>
<path d="M154.027 142.808L149.356 236.271L127.39 304.808H166.936L187.476 245.757L193.894 178.646L154.027 142.808Z" fill="#F7EBE7"/>
<path d="M152.923 469.483L160.875 506.533L134.166 509.707L126.571 473.227L152.923 469.483Z" fill="#FCC9A7"/>
<path d="M162.478 503.181C161.801 501.184 159.661 500.471 158.199 501.755C155.346 504.286 150.211 507.389 142.616 506.64C134.735 505.855 131.776 501.22 130.635 497.868C130.028 496.12 128.352 495.229 126.855 495.978L79.0355 520.012C76.1471 521.474 73.8648 524.184 72.7237 527.572C71.6539 530.746 73.7935 534.169 76.7889 534.098L159.412 531.815C162.657 531.744 165.153 528.535 164.867 524.826L163.512 506.64C163.477 506.355 163.441 506.034 163.334 505.748L162.478 503.181Z" fill="#1F252A"/>
<path d="M152.459 290.331H90.4475C90.4475 290.331 52.6843 288.227 50.4377 319.215C48.1912 350.203 105.817 438.852 114.839 486.207L166.687 481.928L129.352 353.162L222.209 353.697C229.091 353.733 235.938 352.734 242.428 350.488C260.507 344.212 288.107 335.226 273.059 285.445L152.459 290.331Z" fill="#092330"/>
<path d="M200.311 469.626L212.934 513.915L186.225 517.088L173.959 473.37L200.311 469.626Z" fill="#FCC9A7"/>
<path d="M214.54 510.563C213.862 508.566 211.723 507.853 210.261 509.136C207.408 511.668 202.273 514.771 194.678 514.022C186.797 513.237 183.837 508.602 182.696 505.25C182.09 503.502 180.414 502.611 178.916 503.36L131.097 527.394C128.209 528.856 125.926 531.566 124.785 534.954C123.715 538.127 125.855 541.551 128.85 541.479L212.9 539.197C216.145 539.126 218.641 535.917 218.355 532.208L215.538 514.022C215.503 513.736 215.467 513.416 215.36 513.13L214.54 510.563Z" fill="#1F252A"/>
<path d="M226.557 106.079C227.948 107.434 290.174 123.303 290.174 123.303L276.873 158.641L208.835 153.506L226.557 106.079Z" fill="#F7EBE7"/>
<path d="M200.882 114.601C200.882 114.601 160.337 129.4 154.026 142.808C156.201 161.743 162.869 179.965 173.852 195.548C187.331 214.661 203.984 247.503 200.918 290.33H318.13C318.13 290.33 311.818 169.837 277.122 123.587L200.882 114.601Z" fill="#F7EBE7"/>
<path d="M214.185 133.714C225.703 131.361 233.12 120.128 230.766 108.61L223.884 74.9121L182.198 83.4347L189.08 117.133C191.434 128.651 202.667 136.068 214.185 133.714Z" fill="#FCC9A7"/>
<path d="M226.734 86.6802C226.734 86.6802 222.348 113.995 201.095 115.636C182.481 117.062 184.264 90.1391 184.264 90.1391L226.734 86.6802Z" fill="#F4BE9A"/>
<path d="M202.772 100.659L206.445 99.8027C224.881 95.5236 236.363 77.1234 232.084 58.7231L227.234 37.7198C222.955 19.2839 204.555 7.80162 186.155 12.0807L182.482 12.9366C164.046 17.2157 152.563 35.6159 156.842 54.0161L161.692 75.0195C165.971 93.4554 184.371 104.938 202.772 100.659Z" fill="#FCC9A7"/>
<path d="M220.529 67.4597C219.673 68.9218 218.853 71.1327 218.568 74.4846C218.247 78.7281 216.107 82.7576 212.541 85.1111C202.307 91.8864 194.498 74.7342 179.378 77.7653C179.378 77.7653 173.459 78.6568 172.282 85.2537C171.105 91.8151 162.868 80.3328 161.049 72.4877C159.231 64.6426 158.304 111.321 195.532 107.363C195.532 107.363 214.324 106.756 226.983 87.6073C228.374 85.5034 229.194 83.0429 229.266 80.511C229.372 76.7668 228.838 71.097 225.272 67.0318C224.024 65.5341 221.528 65.7481 220.529 67.4597Z" fill="#1C2226"/>
<path d="M220.567 56.869C220.567 56.869 204.485 51.5558 207.195 28.0563C207.195 28.0563 167.256 65.8552 137.659 38.1122C137.659 38.1122 150.889 34.5819 156.345 25.5245C166.294 9.01419 194.893 -13.7365 217.786 12.5801C217.786 12.5801 245.636 8.26535 237.648 51.1635L220.567 56.869Z" fill="#1C2226"/>
<path d="M220.568 56.8687C222.101 63.4301 228.663 67.5309 235.224 66.0332C241.821 64.4998 245.886 57.9385 244.388 51.3772C242.855 44.8159 236.294 40.7151 229.732 42.2128C223.135 43.7461 219.035 50.3074 220.568 56.8687Z" fill="#FCC9A7"/>
<path d="M200.243 132.396L217.466 132.716L205.413 157.678L192.398 133.751L200.243 132.396Z" fill="#0C2C40"/>
<path d="M232.226 107.185L210.046 133.073L224.488 149.655L251.055 113.14C251.055 113.14 244.243 102.192 232.226 107.185Z" fill="#FFF7F3"/>
<path d="M200.242 132.396L187.475 146.802L178.489 124.337C178.489 124.337 180.843 114.245 188.189 116.171L200.242 132.396Z" fill="#FFF7F3"/>
<path d="M204.947 149.619C204.947 149.619 188.295 193.052 192.431 254.671L208.834 269.648L227.983 251.212L207.337 146.802L204.947 149.619Z" fill="#0C2C40"/>
<path d="M236.08 252.746L200.42 264.478L198.067 285.41L245.351 271.289L236.08 252.746Z" fill="#FCC9A7"/>
<path d="M205.734 278.314C205.734 290.545 195.82 300.494 183.553 300.494C171.322 300.494 161.373 290.58 161.373 278.314C161.373 266.083 171.286 256.134 183.553 256.134C195.784 256.134 205.734 266.047 205.734 278.314Z" fill="#FCC9A7"/>
<path d="M200.883 290.331H138.907C138.907 290.331 101.143 288.227 98.8968 319.215C96.6503 350.203 158.519 444.557 167.541 491.877L219.39 487.598L177.811 353.127L270.668 353.662C277.55 353.697 284.397 352.699 290.887 350.452C308.966 344.176 336.566 335.19 321.518 285.41L200.883 290.331Z" fill="#0C2C40"/>
<path d="M13.923 180.75H121.079C124.61 180.75 127.641 183.21 128.39 186.669L148.573 281.309C149.571 285.945 146.005 290.331 141.262 290.331H32.3233C28.7573 290.331 25.6907 287.799 25.0131 284.304L6.61291 189.664C5.68577 185.029 9.216 180.75 13.923 180.75Z" fill="#B2B2B2"/>
<path d="M7.7525 180.75H114.873C118.403 180.75 121.435 183.21 122.183 186.669L142.366 281.309C143.365 285.945 139.835 290.331 135.056 290.331H26.1527C22.5868 290.331 19.5201 287.799 18.8426 284.304L0.442379 189.664C-0.484764 185.029 3.04547 180.75 7.7525 180.75Z" fill="#D1D1D1"/>
<path d="M145.647 282.236H218.855C221.102 282.236 222.885 284.054 222.885 286.265C222.885 288.512 221.066 290.295 218.855 290.295H144.22L145.647 282.236Z" fill="#B2B2B2"/>
<path d="M74.0775 233.062C74.0775 239.516 68.8713 244.722 62.4169 244.722C55.9626 244.722 50.7563 239.48 50.7563 233.062C50.7563 226.607 55.9982 221.401 62.4169 221.401C68.8713 221.401 74.0775 226.607 74.0775 233.062Z" fill="white"/>
<path d="M264.605 156.965L303.759 220.189L210.046 253.637L222.884 281.38C222.884 281.38 303.01 272.394 341.736 242.547C345.302 239.801 347.085 235.344 346.479 230.886C344.66 216.623 336.886 181.998 303.759 132.788C297.019 122.767 283.611 119.736 273.163 125.798C262.287 132.074 258.472 145.982 264.605 156.965Z" fill="#F7EBE7"/>
<path d="M234.973 244.722L303.76 220.189L269.348 164.596" stroke="#EADDD8" stroke-width="0.7599" stroke-miterlimit="10" stroke-linecap="round" stroke-linejoin="round"/>
<path d="M188.404 223.791L171.465 179.074" stroke="#EADDD8" stroke-width="0.7599" stroke-miterlimit="10" stroke-linecap="round" stroke-linejoin="round"/>
<path d="M236.081 279.49C236.081 279.49 288.714 272.893 315.245 257.702" stroke="#EADDD8" stroke-width="0.7599" stroke-miterlimit="10" stroke-linecap="round" stroke-linejoin="round"/>
</svg>
