<svg width="358" height="584" viewBox="0 0 358 584" fill="none" xmlns="http://www.w3.org/2000/svg">
<path d="M128.42 14.2354C128.42 14.2354 119.941 14.904 119.212 26.6343C118.483 38.3646 118.422 72.4008 134.346 74.4977C150.27 76.5945 138.813 18.5811 138.813 18.5811L128.42 14.2354Z" fill="#1C2226"/>
<path d="M183.732 24.7499C183.732 24.7499 190.175 42.7101 177.32 45.9921C164.435 49.2742 166.836 23.2305 166.836 23.2305L183.732 24.7499Z" fill="#1C2226"/>
<path d="M110.492 137.556L70.651 193.716L72.8695 188.458L54.4839 270.874L34.0013 267.045L46.6738 183.565C46.9473 181.742 47.6462 180.101 48.6187 178.703L48.8922 178.308L88.7328 122.148L110.492 137.556Z" fill="#FCC9A7"/>
<path d="M39.2297 296.158C28.7454 293.028 22.8194 281.966 25.9495 271.512C29.0797 261.028 40.1415 255.102 50.5954 258.232C61.0798 261.362 67.0057 272.424 63.8756 282.878C60.7455 293.332 49.7141 299.288 39.2297 296.158Z" fill="#FCC9A7"/>
<path d="M196.738 135.641L221.93 212.648L208.407 203.47L290.459 201.252L291.765 222.069L210.079 230.122C204.001 230.73 198.531 226.961 196.707 221.4L196.555 220.944L171.362 143.937L196.738 135.641Z" fill="#FCC9A7"/>
<path d="M192.27 529.519L204.608 563.524L222.659 547.296L211.142 520.037L192.27 529.519Z" fill="#FCC9A7"/>
<path d="M197.466 555.654C197.466 553.982 198.895 552.888 200.323 553.496C203.119 554.681 207.768 555.715 213.269 553.253C219.012 550.67 220.076 546.446 220.076 543.65C220.076 542.191 221.109 541.097 222.446 541.28L264.475 547.327C267.028 547.692 269.428 549.181 271.13 551.46C272.741 553.587 271.981 556.717 269.732 557.386L206.978 576.471C204.517 577.23 201.842 575.437 201.113 572.581L197.558 558.541C197.497 558.298 197.466 558.055 197.466 557.842V555.654Z" fill="#1F252A"/>
<path d="M28.1666 506.423L14.4913 533.196L30.4154 546.81L47.6158 514.689L28.1666 506.423Z" fill="#FCC9A7"/>
<path d="M11.6349 527.3C12.9113 526.237 14.6739 526.602 15.1297 528.091C16.0414 531.008 18.2295 535.202 23.6996 537.815C29.3824 540.52 33.3026 538.575 35.4298 536.782C36.5542 535.84 38.0737 535.931 38.7727 537.055L61.3824 573.006C62.75 575.194 63.1754 577.96 62.5373 580.725C61.9599 583.339 59.1032 584.767 57.0975 583.49L1.91028 547.996C-0.247367 546.598 -0.642426 543.407 1.05938 541.006L9.47732 529.215C9.62926 529.033 9.78113 528.85 9.96347 528.698L11.6349 527.3Z" fill="#1F252A"/>
<path d="M178.32 255.284L124.349 405.013L47.9496 531.616L13.8831 514.78L81.8035 388.573L119.061 262.335L178.32 255.284Z" fill="#092330"/>
<path d="M94.9314 257.503C94.9314 257.503 84.7205 276.8 100.584 307.645L149.845 401.64L187.376 544.106L224.664 531.099L188.987 387.023L150.423 274.612L178.35 255.315L94.9314 257.503Z" fill="#0C2C40"/>
<path d="M141.397 91.1509L99.3687 99.7816C94.4152 100.784 90.0391 103.641 87.0913 107.744L60.3486 145.001L96.0866 168.37L83.2015 270.388C83.2015 270.388 97.7579 314.939 186.556 279.414C186.556 279.414 178.898 194.87 184.034 139.804L181.42 103.55L141.397 91.1509Z" fill="#DF945B"/>
<path d="M181.451 103.52L188.441 106.072C194.215 108.169 198.712 112.819 200.627 118.684L215.183 163.083L172.395 170.984L181.451 103.52Z" fill="#DF945B"/>
<path d="M317.747 205.719C317.747 216.659 308.874 225.533 297.933 225.533C286.993 225.533 278.15 216.659 278.15 205.719C278.15 194.779 287.024 185.936 297.933 185.936C308.874 185.936 317.747 194.779 317.747 205.719Z" fill="#FCC9A7"/>
<path d="M153.282 104.006L148.511 106.65C139.242 105.89 130.52 103.915 131.28 94.6462L133.498 67.478L167.079 70.2435L164.86 97.4116C164.1 106.68 162.551 104.766 153.282 104.006Z" fill="#FCC9A7"/>
<path d="M133.043 70.76C133.043 70.76 137.662 90.8779 154.559 90.1789C169.328 89.5408 167.93 67.478 167.93 67.478L133.043 70.76Z" fill="#F4BE9A"/>
<path d="M151.671 83.0372L148.815 82.7333C134.532 81.1834 124.199 68.3591 125.719 54.0456L127.481 37.7569C129.031 23.4739 141.855 13.1415 156.169 14.6609L159.026 14.9649C173.309 16.5147 183.641 29.3391 182.122 43.6525L180.359 59.9412C178.809 74.2242 165.985 84.5567 151.671 83.0372Z" fill="#FCC9A7"/>
<path d="M98.5486 161.259L109.367 148.496" stroke="#CE804A" stroke-width="0.7693" stroke-miterlimit="10" stroke-linecap="round" stroke-linejoin="round"/>
<path d="M182.423 169.13L184.064 142.783" stroke="#CE804A" stroke-width="0.7693" stroke-miterlimit="10" stroke-linecap="round" stroke-linejoin="round"/>
<path d="M153.281 104.006L131.947 91.1205C122.83 87.3218 117.026 96.1347 117.026 96.1347L142.432 121.054L153.281 104.006Z" fill="#EDA472"/>
<path d="M153.28 104.006L163.612 119.991L173.944 101.18C173.944 101.18 169.872 94.7675 164.311 96.2565L153.28 104.006Z" fill="#EDA472"/>
<path d="M208.953 206.539H338.077C340.235 206.539 341.967 204.807 341.967 202.65C341.967 200.492 340.235 198.76 338.077 198.76H208.953C206.795 198.76 205.063 200.492 205.063 202.65C205.063 204.777 206.795 206.539 208.953 206.539Z" fill="#D1D1D1"/>
<path d="M341.968 201.647L357.406 126.646C357.801 124.792 356.373 123.03 354.458 123.03H275.901C274.473 123.03 273.227 124.033 272.954 125.461L257.729 201.678H341.968V201.647Z" fill="#D1D1D1"/>
<path d="M348.684 128.743L334.28 196.785H263.047L277.451 128.743H348.684Z" fill="#EFEFEF"/>
<path d="M129.182 50.1556H137.903L139.605 40.583C139.605 40.583 148.722 35.6903 146.959 26.2392C146.959 26.2392 185.341 40.0055 191.328 24.6893C199.229 4.48029 170.572 -0.533923 146.959 0.0434765C123.347 0.590487 125.049 30.7368 125.049 30.7368L129.182 50.1556Z" fill="#1C2226"/>
<path d="M134.286 48.2409C133.739 53.3464 129.15 57.0236 124.045 56.4765C118.939 55.9295 115.262 51.3407 115.809 46.2352C116.356 41.1298 120.945 37.4527 126.05 37.9997C131.156 38.5467 134.833 43.1355 134.286 48.2409Z" fill="#FCC9A7"/>
</svg>
