<svg width="311" height="546" viewBox="0 0 311 546" fill="none" xmlns="http://www.w3.org/2000/svg">
<path d="M2.91182 531.492H105.095L105.095 360.78H2.91182L2.91182 531.492Z" fill="#B2B2B2"/>
<path d="M104.692 531.492H206.875L206.875 360.78H104.692L104.692 531.492Z" fill="#D1D1D1"/>
<path d="M113.872 199.352L126.178 258.279L87.7401 263.228C87.7401 263.228 84.4077 201.991 87.7401 201.661C91.0725 201.364 113.872 199.352 113.872 199.352Z" fill="#A8754B"/>
<path d="M77.9072 140.16C77.9072 140.16 116.313 145.571 123.208 204.004C123.208 204.004 110.967 217.169 95.3612 213.11L77.9072 140.16Z" fill="#FFD686"/>
<path d="M61.2445 138.148C61.2445 138.148 23.829 134.453 10.6643 160.815C-2.53335 187.177 35.9379 214.628 22.7402 275.041L105.688 270.653V217.367C105.688 217.367 120.799 195.327 99.3858 171.703C99.3858 171.703 98.0991 135.805 61.2445 138.148Z" fill="#FFD686"/>
<path d="M184.643 283.586C184.643 283.586 211.534 273.622 218.759 299.72C225.985 325.786 255.944 496.201 255.944 496.201H231.924L217.803 428.464C217.803 428.464 197.874 406.259 191.77 359.11L107.965 349.113L184.643 283.586Z" fill="#B5845B"/>
<path d="M129.675 345.945C129.675 345.945 143.929 345.549 169.236 337.498C194.542 329.415 212.59 337.96 202.626 366.467C192.661 394.941 142.312 526.918 142.312 526.918L123.242 521.21L139.706 435.755C139.706 435.755 143.566 393.358 161.449 368.513C161.449 368.513 123.835 370.394 110.968 368.414C98.1659 366.467 129.675 345.945 129.675 345.945Z" fill="#A8754B"/>
<path d="M22.7396 275.041C22.7396 275.041 -7.68108 313.281 28.9095 350.828C28.9095 350.828 47.7492 372.77 130.796 369.338C130.796 369.338 152.572 295.827 198.896 276.063L103.015 263.229L22.7396 275.041Z" fill="#0C2C40"/>
<path d="M63.2922 40.5176C63.2922 40.5176 73.1905 0.23163 38.9095 0.000670332C13.5369 -0.164301 5.9812 30.1573 37.0948 50.4488L63.2922 40.5176Z" fill="#190D08"/>
<path d="M35.9401 57.7736C35.9401 57.7736 29.7372 41.9364 47.4221 33.9188C65.107 25.9012 70.749 44.8728 70.749 44.8728L35.9401 57.7736Z" fill="#FD6C75"/>
<path d="M103.115 93.8034C103.115 93.8034 128.652 78.692 101.036 48.3373C83.78 29.3657 53.5573 30.4214 36.7302 49.2281C19.9031 68.0349 35.7734 101.194 35.7734 101.194L47.2224 82.1564L57.2526 67.375L71.6051 61.634L82.8562 62.4258L92.3915 63.6466L100.079 66.8801L103.115 93.8034Z" fill="#27160C"/>
<path d="M82.2553 106.014L53.5537 102.327L47.7445 147.556L76.4461 151.242L82.2553 106.014Z" fill="#B5845B"/>
<path d="M50.5549 115.777C50.5549 115.777 53.6564 132.241 66.8871 135.574C71.0113 136.597 75.4986 135.409 78.0061 132.01C78.699 131.087 79.1939 130.031 79.3589 128.843C79.9858 124.092 67.448 115.777 67.448 115.777H50.5549Z" fill="#A8754B"/>
<path d="M70.7815 127.49L69.2968 127.292C52.8326 125.181 41.1857 110.102 43.2973 93.6381L44.98 80.5724C47.0916 64.1083 62.17 52.4613 78.6341 54.5729L80.1189 54.7709C96.583 56.8825 108.23 71.9609 106.118 88.4251L104.436 101.491C102.324 117.955 87.2456 129.602 70.7815 127.49Z" fill="#B5845B"/>
<path d="M46.5288 90.3719C46.5288 90.3719 67.1832 83.641 66.6553 60.4461C66.6553 60.4461 67.9751 43.1572 49.8942 59.1594C31.8134 75.1616 46.5288 90.3719 46.5288 90.3719Z" fill="#27160C"/>
<path d="M51.0827 96.7068C50.3569 102.25 45.3088 106.176 39.7328 105.45C34.1897 104.724 30.2634 99.6762 30.9893 94.1332C31.7151 88.5902 36.7633 84.6638 42.3393 85.3897C47.8823 86.0825 51.8086 91.1637 51.0827 96.7068Z" fill="#B5845B"/>
<path d="M57.7154 78.7578L56.7916 86.0825C54.6799 96.4097 50.3247 93.2752 48.741 88.821L57.7154 78.7578Z" fill="#27160C"/>
<path d="M109.285 75.0296C109.285 75.0296 88.2019 90.8338 57.2863 67.4079C35.972 51.2738 68.2073 45.4668 68.2073 45.4668L98.2651 51.6696L109.285 75.0296Z" fill="#27160C"/>
<path d="M47.7837 147.518C47.7837 147.518 65.8316 179.72 78.6333 169.822C92.4579 159.132 61.2453 138.147 61.2453 138.147L47.7837 147.518Z" fill="#B5845B"/>
<path d="M55.7684 213.11C55.7684 213.11 66.9204 233.666 74.5421 249.8L155.84 245.115C155.84 245.115 171.974 231.917 184.611 243.069L172.139 258.048L70.3518 280.583C66.4585 281.441 62.4002 280.32 59.5297 277.614C50.5223 269.102 30.9237 249.272 21.4214 229.047L55.7684 213.11Z" fill="#B5845B"/>
<path d="M281.415 181.403H181.508C178.209 181.403 175.372 183.712 174.712 186.913L155.905 275.172C154.981 279.495 158.28 283.586 162.702 283.586H264.291C267.623 283.586 270.494 281.21 271.121 277.944L288.278 189.684C289.07 185.395 285.77 181.403 281.415 181.403Z" fill="#B2B2B2"/>
<path d="M287.157 181.403H187.251C183.951 181.403 181.114 183.712 180.454 186.913L161.647 275.172C160.723 279.495 164.023 283.586 168.444 283.586H270.033C273.366 283.586 276.236 281.21 276.863 277.944L294.02 189.684C294.812 185.395 291.545 181.403 287.157 181.403Z" fill="#D1D1D1"/>
<path d="M158.546 276.063H90.2806C88.202 276.063 86.5193 277.746 86.5193 279.824C86.5193 281.903 88.202 283.586 90.2806 283.586H159.865L158.546 276.063Z" fill="#B2B2B2"/>
<path d="M225.291 230.201C225.291 236.206 230.174 241.089 236.179 241.089C242.184 241.089 247.067 236.206 247.067 230.201C247.067 224.196 242.184 219.313 236.179 219.313C230.174 219.313 225.291 224.163 225.291 230.201Z" fill="white"/>
<path d="M21.4206 147.98C20.0679 148.574 -24.7053 170.581 19.342 238.78C19.342 238.78 47.4861 239.242 63.7853 218.291C63.8183 218.291 58.4072 131.747 21.4206 147.98Z" fill="#FFD686"/>
<path d="M118.06 517.482C118.654 515.701 120.6 515.041 121.92 516.195C124.494 518.472 129.113 521.277 135.91 520.584C143.004 519.891 145.643 515.701 146.666 512.698C147.194 511.114 148.712 510.323 150.064 510.982L193.023 532.561C195.629 533.88 197.675 536.322 198.665 539.357C199.622 542.228 197.708 545.296 195.002 545.23L120.798 543.185C117.862 543.119 115.651 540.248 115.882 536.916L117.103 520.551C117.136 520.287 117.169 520.023 117.268 519.759L118.06 517.482Z" fill="#FD6C75"/>
<path d="M226.381 489.239C226.513 487.359 228.196 486.204 229.747 486.996C232.815 488.513 237.995 489.998 244.396 487.557C251.028 485.016 252.513 480.298 252.711 477.13C252.81 475.481 254.063 474.293 255.548 474.59L302.664 484.191C305.534 484.785 308.141 486.6 309.923 489.272C311.605 491.78 310.55 495.244 307.943 495.871L235.785 513.325C232.947 514.018 230.044 511.84 229.417 508.541L226.315 492.44C226.249 492.176 226.249 491.912 226.249 491.615L226.381 489.239Z" fill="#FD6C75"/>
</svg>
