<svg width="272" height="593" viewBox="0 0 272 593" fill="none" xmlns="http://www.w3.org/2000/svg">
<path d="M87.5202 264.689C95.6466 259.794 106.22 262.398 111.115 270.556C116.01 278.682 113.406 289.256 105.248 294.151C97.1214 299.045 86.5476 296.441 81.6529 288.283C76.7582 280.188 79.3938 269.615 87.5202 264.689Z" fill="#FCC9A7"/>
<path d="M107.005 265.912C106.44 265.473 76.2564 230.018 76.2564 230.018L63.9257 244.953L91.1601 279.435L107.005 265.912Z" fill="#FCC9A7"/>
<path d="M81.5572 542.335L73.8701 577.445L49.585 573.805L57.429 539.166L81.5572 542.335Z" fill="#FCC9A7"/>
<path d="M190.433 539.198L190.716 575.155L166.274 576.975L166.211 541.457L190.433 539.198Z" fill="#FCC9A7"/>
<path d="M76.9451 571.735C76.4431 570.26 74.6546 569.632 73.3682 570.574C70.8581 572.394 66.4341 574.527 60.0334 573.774C53.3816 572.99 50.9972 569.476 50.1814 566.965C49.7422 565.648 48.3302 564.957 47.0438 565.459L5.84704 581.963C3.33696 582.967 1.32883 584.913 0.29342 587.391C-0.710614 589.713 0.983785 592.317 3.52525 592.317L73.5252 592.819C76.2863 592.851 78.4826 590.56 78.3571 587.799L77.7609 574.276C77.7609 574.056 77.6982 573.837 77.6355 573.617L76.9451 571.735Z" fill="#0C0C0C"/>
<path d="M163.795 571.735C164.297 570.26 166.116 569.632 167.372 570.574C169.882 572.394 174.306 574.527 180.706 573.774C187.358 572.99 189.711 569.476 190.558 566.965C190.998 565.648 192.41 564.957 193.696 565.459L234.893 581.963C237.403 582.967 239.411 584.913 240.446 587.391C241.45 589.713 239.756 592.317 237.215 592.317L167.215 592.819C164.454 592.851 162.257 590.56 162.383 587.799L162.979 574.276C162.979 574.056 163.042 573.837 163.104 573.617L163.795 571.735Z" fill="#0C0C0C"/>
<path d="M163.48 88.4175L141.737 90.3001L107.16 109.785V248.341H199.437V109.785L163.48 88.4175Z" fill="#54585A"/>
<path d="M157.518 102.38H151.274C144.81 102.38 139.571 97.1403 139.571 90.6768V67.2075H169.19V90.6768C169.221 97.1403 163.981 102.38 157.518 102.38Z" fill="#FCC9A7"/>
<path d="M139.571 79.1624C139.571 79.1624 144.183 88.4183 154.663 88.4183C165.142 88.4183 169.19 78.9741 169.19 78.9741L139.571 79.1624Z" fill="#F4BE9A"/>
<path d="M154.726 82.9895H153.753C138.661 82.9895 126.236 71.0666 125.64 55.9747L125.107 40.9456C124.479 24.9752 137.249 11.7031 153.22 11.7031H155.259C167.339 11.7031 184 24.9752 183.372 40.9456L182.839 55.9747C182.243 71.0666 169.818 82.9895 154.726 82.9895Z" fill="#FCC9A7"/>
<path d="M134.269 52.3351C134.614 57.418 130.787 61.8107 125.704 62.1558C120.621 62.501 116.228 58.6731 115.883 53.5902C115.538 48.5072 119.366 44.1146 124.449 43.7695C129.532 43.4557 133.924 47.2836 134.269 52.3351Z" fill="#FCC9A7"/>
<path d="M192.567 52.3351C192.913 57.418 189.085 61.8107 184.002 62.1558C178.919 62.501 174.526 58.6731 174.181 53.5902C173.836 48.5072 177.664 44.1146 182.747 43.7695C187.83 43.4557 192.222 47.2836 192.567 52.3351Z" fill="#FCC9A7"/>
<path d="M107.159 247.683L49.7726 552.752L82.7489 552.438L166.648 248.279L107.159 247.683Z" fill="#0C0C0C"/>
<path d="M199.439 248.342L195.831 553.066H160.972L147.073 250.256L199.439 248.342Z" fill="#0C0C0C"/>
<path d="M107.159 109.785C107.159 109.785 30.0994 156.284 11.3679 188.539C7.69692 194.846 12.466 203.003 18.9295 206.361C26.0832 210.094 34.9 207.553 39.0102 200.619L110.297 159.265C110.328 159.265 107.159 123.748 107.159 109.785Z" fill="#54585A"/>
<path d="M123.506 23.8773L125.671 46.97H129.154L129.593 34.8589C129.593 34.8589 131.413 30.2152 139.539 20.2376C139.539 20.2376 144.842 33.7921 177.692 31.1565L179.606 46.468L182.995 46.0915L184.783 29.6504C185.976 24.0969 186.384 18.9198 185.38 13.3349C183.34 2.03951 174.147 -4.20432 147.603 3.7652C145.406 4.4241 149.893 3.98483 147.603 3.7652C140.01 2.91805 119.992 2.82392 123.506 23.8773Z" fill="#2E2A33"/>
<path d="M162.603 246.145L155.135 326.029C154.853 329.041 156.892 331.77 159.873 332.335L251.491 349.843C254.848 350.502 258.049 348.117 258.425 344.729L266.803 268.799C267.116 265.849 265.202 263.12 262.284 262.429L169.756 240.968C166.305 240.152 162.948 242.6 162.603 246.145Z" fill="#AFAFAF"/>
<path d="M167.686 247.557L160.219 327.44C159.936 330.452 161.976 333.182 164.956 333.747L256.575 351.255C259.932 351.882 263.132 349.529 263.509 346.14L271.886 270.21C272.2 267.261 270.286 264.531 267.368 263.841L174.84 242.38C171.42 241.564 168.031 244.011 167.686 247.557Z" fill="#D1D1D1"/>
<path d="M215.375 329.104C224.474 331.802 229.683 341.372 226.984 350.471C224.286 359.57 214.716 364.778 205.617 362.111C196.518 359.413 191.31 349.843 193.977 340.744C196.707 331.614 206.245 326.405 215.375 329.104Z" fill="#FCC9A7"/>
<path d="M227.644 344.29C227.582 343.568 224.632 295.688 224.632 295.688L208.348 298.638L210.513 339.458L227.644 344.29Z" fill="#FCC9A7"/>
<path d="M199.437 109.785C199.437 109.785 224.099 127.45 225.668 152.613L233.386 211.444C233.825 214.895 234.014 218.346 233.888 221.829L230.907 311.314H197.053L196.425 214.456L199.437 109.785Z" fill="#54585A"/>
<path d="M144.341 88.4175C141.705 90.3314 128.998 97.4852 128.998 97.4852C128.998 97.4852 129.343 115.37 156.263 113.926C179.952 112.671 179.795 98.1441 179.795 98.1441L163.448 88.4175H144.341V88.4175Z" fill="#FCC9A7"/>
<path d="M49.3323 176.93L95.3923 250.538L73.5545 271.215L11.4928 198.767L49.3323 176.93Z" fill="#54585A"/>
<path d="M196.394 247.369V214.424L188.738 154.339" stroke="#424647" stroke-width="0.7693" stroke-miterlimit="10" stroke-linecap="round" stroke-linejoin="round"/>
</svg>
