<svg width="259" height="562" viewBox="0 0 259 562" fill="none" xmlns="http://www.w3.org/2000/svg">
<path d="M221.321 89.3418C222.313 80.683 230.1 74.4594 238.759 75.4516C247.418 76.4437 253.642 84.2307 252.649 92.8895C251.657 101.548 243.87 107.772 235.211 106.78C226.553 105.818 220.329 98.0006 221.321 89.3418Z" fill="#FCC9A7"/>
<path d="M230.972 85.7339L212.782 122.384L227.695 130.291L242.607 103.743L230.972 85.7339Z" fill="#FCC9A7"/>
<path d="M110.619 147.639L192.367 190.602C195.614 192.466 199.763 191.203 201.416 187.836L239.329 119.016L217.471 104.795L187.015 155.756L129.47 119.407C120.931 112.823 108.514 115.739 103.794 125.42C99.9156 133.508 102.892 143.189 110.619 147.639Z" fill="#F9A772"/>
<path d="M123.727 358.698C123.727 358.698 103.282 393.904 91.5268 416.694C89.6929 420.242 86.6863 422.857 84.0105 425.834C75.953 434.793 68.3164 444.474 59.3869 461.762C46.098 487.528 23.9398 539.481 23.9398 539.481L8.45615 533.738L25.1424 476.554C25.1424 476.554 27.9385 426.285 60.1686 399.316C60.1686 399.316 68.9176 384.103 76.434 354.458L123.727 358.698Z" fill="#F2C09E"/>
<path d="M152.349 343.485C152.349 343.485 131.122 477.847 134.67 543.901L116.33 544.562L110.949 486.536C110.949 486.536 94.9538 446.639 111.159 411.974L103.673 333.984L152.349 343.485Z" fill="#FCC9A7"/>
<path d="M99.3434 91.5366C99.3434 91.5366 78.9291 109.756 84.1004 136.725C89.2716 163.724 104.304 175.329 101.779 193.128L160.076 191.023L158.873 157.981C158.873 157.981 177.814 143.52 157.52 120.46L140.052 100.556L124.388 102.571L99.3434 91.5366Z" fill="#F9A772"/>
<path d="M129.677 87.0566L141.493 93.9416L149.4 107.261L133.105 102.27L129.677 87.0566Z" fill="#F7EBE7"/>
<path d="M124.42 102.57C120.903 102.54 117.174 101.097 114.408 99.6541C111.672 98.241 109.989 95.3848 109.989 92.2881L110.56 35.7651L135.274 35.8854L134.702 91.6868C134.672 98.1508 130.042 102.601 124.42 102.57Z" fill="#FCC9A7"/>
<path d="M134.853 76.053L124.661 61.6216C124.661 61.6216 118.407 78.0974 134.793 83.2085L134.853 76.053Z" fill="#F2C09E"/>
<path d="M157.099 36.0059C157.009 52.8426 143.299 66.4021 126.493 66.3419C109.656 66.2517 96.0666 52.5419 96.1568 35.7354C96.247 18.8987 109.957 5.30918 126.793 5.39937C143.6 5.48957 157.19 19.1693 157.099 36.0059Z" fill="#FCC9A7"/>
<path d="M137.048 76.2334C129.05 76.2033 122.616 69.6791 122.646 61.6817L122.737 40.8163L157.101 36.0059L157.011 56.4503C156.951 67.4242 148.022 76.2634 137.048 76.2334Z" fill="#FCC9A7"/>
<path d="M156.167 42.8311L162.782 52.6624C163.714 54.2559 162.481 56.2102 160.527 56.2102L152.8 57.6232L156.167 42.8311Z" fill="#FCC9A7"/>
<path d="M109.594 81.8252L140.08 100.586L133.466 113.604L99.3418 91.5664C99.3418 91.5363 103.611 84.0801 109.594 81.8252Z" fill="#F7EBE7"/>
<path d="M101.807 193.157L97.6275 207.408L160.945 205.123L160.073 191.053L101.807 193.157Z" fill="#F7EBE7"/>
<path d="M160.946 205.124L163.832 365.342C163.832 365.342 100.033 377.909 64.917 356.142C64.917 356.142 78.6268 304.61 76.0713 283.534C71.3209 244.9 76.7628 228.214 97.6883 207.378L160.946 205.124Z" fill="#E49258"/>
<path d="M110.707 535.903C111.158 534.31 112.842 533.649 114.075 534.611C116.45 536.535 120.659 538.79 126.672 537.918C132.926 536.986 135.121 533.198 135.872 530.492C136.263 529.079 137.586 528.297 138.819 528.838L177.753 546.216C180.128 547.268 182.023 549.373 183.045 552.018C184.007 554.514 182.443 557.31 180.038 557.37L114.195 558.603C111.609 558.663 109.505 556.198 109.595 553.251L110.016 538.7C110.016 538.459 110.046 538.218 110.136 537.978L110.707 535.903Z" fill="#1F252A"/>
<path d="M5.89933 522.615C6.77122 521.202 8.57516 520.991 9.47712 522.254C11.251 524.749 14.7085 528.026 20.7516 528.778C27.0052 529.56 30.132 526.463 31.6052 524.058C32.3568 522.795 33.8301 522.404 34.8824 523.246L67.8341 550.305C69.8484 551.958 71.1112 554.454 71.4119 557.31C71.6824 559.986 69.4275 562.271 67.1124 561.67L3.28365 545.404C0.788226 544.773 -0.594812 541.856 0.247019 539.03L4.51635 525.11C4.57648 524.87 4.69676 524.659 4.81702 524.449L5.89933 522.615Z" fill="#1F252A"/>
<path d="M122.764 49.1744L135.722 48.6934C135.722 48.6934 136.835 37.4489 139.36 34.7431C141.886 32.0372 143.179 20.011 143.179 20.011C143.179 20.011 145.494 27.4973 143.72 35.2542L162.421 34.5927C162.421 34.5927 166.479 1.64105 125.35 0.0475837C84.2205 -1.54588 85.3328 37.3587 93.4204 45.0855C99.8544 51.2189 110.287 62.1326 110.287 62.1326C110.287 62.1326 109.806 49.6254 122.764 49.1744Z" fill="#4C1827"/>
<path d="M132.144 45.1758C132.324 49.9863 128.566 54.0151 123.756 54.1955C118.945 54.3758 114.916 50.6177 114.736 45.8072C114.556 40.9967 118.314 36.968 123.124 36.7876C127.935 36.6373 131.963 40.3654 132.144 45.1758Z" fill="#FCC9A7"/>
<path d="M99.1318 51.369C99.5227 62.2226 91.0442 71.3625 80.1906 71.7534C69.337 72.1442 60.1971 63.6658 59.8062 52.7821C59.4154 41.9285 67.8939 32.7886 78.7475 32.3978C89.6312 32.0069 98.741 40.4853 99.1318 51.369Z" fill="#4C1827"/>
<path d="M120.932 226.771C129.5 228.274 135.243 236.422 133.77 245.02C132.266 253.589 124.119 259.331 115.52 257.858C106.951 256.355 101.209 248.207 102.682 239.608C104.185 231.01 112.363 225.267 120.932 226.771Z" fill="#FCC9A7"/>
<path d="M126.282 228.755L90.7746 208.431L81.9954 222.832L107.611 239.308L126.282 228.755Z" fill="#FCC9A7"/>
<path d="M88.7283 104.645L31.7544 179.508C29.3492 182.394 29.8603 186.694 32.8969 188.919L94.4708 236.422L112.27 217.39L66.961 180.35L113.202 128.186C121.169 120.941 120.477 108.193 111.758 101.849C104.513 96.5576 94.4708 97.8204 88.7283 104.645Z" fill="#F9A772"/>
<path d="M258.448 54.1958L241.431 99.3841C240.98 100.617 239.627 101.248 238.394 100.857L215.695 93.7017C214.342 93.2808 213.62 91.7775 214.161 90.4547L231.75 45.8677C232.231 44.6951 233.493 44.0637 234.726 44.4245L256.854 50.9487C258.237 51.3696 258.959 52.8428 258.448 54.1958Z" fill="#1C2226"/>
<path d="M252.707 56.12L239.869 92.6194C239.568 93.4612 238.666 93.9423 237.794 93.7318L220.777 89.3122C219.755 89.0416 219.214 87.9593 219.605 86.9972L234.187 50.1671C234.517 49.3252 235.449 48.8743 236.321 49.1448L251.594 53.9252C252.526 54.1958 253.038 55.188 252.707 56.12Z" fill="#EFEFEF"/>
</svg>
