<svg width="309" height="584" viewBox="0 0 309 584" fill="none" xmlns="http://www.w3.org/2000/svg">
<path d="M220.427 535.824L232.239 564.203L251.497 553.976L239.745 526.135L220.427 535.824Z" fill="#FCC9A7"/>
<path d="M225.749 562.529C225.749 560.824 227.215 559.718 228.68 560.346C231.551 561.572 236.276 562.618 241.928 560.077C247.789 557.445 248.865 553.109 248.895 550.268C248.895 548.773 249.972 547.636 251.317 547.846L294.29 554.036C296.892 554.425 299.344 555.92 301.078 558.252C302.723 560.435 301.945 563.605 299.643 564.323L235.498 583.821C232.986 584.598 230.235 582.774 229.487 579.843L225.869 565.489C225.809 565.25 225.779 565.011 225.779 564.772L225.749 562.529Z" fill="#1F252A"/>
<path d="M46.2939 466.985L19.3801 481.817L31.611 499.849L58.0164 485.137L46.2939 466.985Z" fill="#FCC9A7"/>
<path d="M20.3372 475.178C22.0418 474.999 23.2978 476.345 22.8493 477.84C21.9521 480.801 21.4138 485.645 24.5537 490.968C27.8133 496.5 32.2392 497.128 35.0801 496.799C36.5753 496.65 37.8013 497.577 37.7714 498.922L36.3062 542.314C36.2164 544.945 34.9903 547.547 32.8671 549.52C30.8934 551.375 27.6339 550.986 26.677 548.743L0.331272 487.11C-0.715374 484.688 0.809761 481.757 3.62076 480.711L17.4964 475.537C17.7356 475.448 17.9748 475.388 18.214 475.358L20.3372 475.178Z" fill="#1F252A"/>
<path d="M206.194 261.662L195.818 328.229L143.366 422.517L53.0547 501.046L32.0022 463.815L103.623 397.009L145.638 262.798L206.194 261.662Z" fill="#092330"/>
<path d="M120.967 257.864C120.967 257.864 110.53 277.601 126.738 309.12L177.067 405.172L215.434 550.746L253.532 537.439L226.17 390.22L177.665 275.328L206.194 261.662L120.967 257.864Z" fill="#0C2C40"/>
<path d="M230.682 70.5739C224.044 77.8406 212.77 78.349 205.533 71.7401C198.266 65.1014 197.758 53.8275 204.367 46.5608C211.005 39.2941 222.249 38.7857 229.546 45.3945C236.813 52.0631 237.321 63.3072 230.682 70.5739Z" fill="#FCC9A7"/>
<path d="M244.918 79.7247L229.427 61.0645L217.077 73.4747L231.61 91.2677L244.918 79.7247Z" fill="#FCC9A7"/>
<path d="M209.96 36.0347L224.165 55.0538C226.019 57.5358 225.959 60.9748 224.015 63.3671L212.502 77.5717C209.811 80.891 204.787 80.9209 202.066 77.6614L186.007 58.5526C183.794 55.921 183.914 52.0334 186.276 49.5215L199.643 35.4067C202.514 32.3863 207.448 32.6555 209.96 36.0347Z" fill="#1C2226"/>
<path d="M195.278 103.08L251.587 131.339L220.666 83.642L241.061 65.9985L305.535 154.336C311.396 161.931 309.123 172.996 300.72 177.631C296.444 179.993 291.3 180.233 286.814 178.259L203.322 145.095L195.278 103.08Z" fill="#F7ECE7"/>
<path d="M215.434 130.203C215.434 130.203 205.476 208.283 206.194 261.662C206.194 261.662 176.32 274.82 112.983 255.592L128.652 110.407L159.155 100.149L195.279 103.08L215.434 130.203Z" fill="#F7ECE7"/>
<path d="M185.047 95.4843L184.27 100.568C184.21 100.927 184.33 101.316 184.599 101.585L192.404 109.868C193.121 110.616 194.377 110.197 194.497 109.18L195.305 103.08C195.364 102.691 195.215 102.302 194.916 102.033L187.111 94.7666C186.363 94.1087 185.167 94.4975 185.047 95.4843Z" fill="#FCF3F0"/>
<path d="M174.614 108.612C165.344 107.865 158.436 99.7007 159.183 90.4304L161.426 63.2773L195.039 66.0286L188.101 103.558C186.994 108.343 183.914 109.36 174.614 108.612Z" fill="#FCC9A7"/>
<path d="M160.29 72.7871C160.29 72.7871 167.527 93.3612 182.21 90.8194C195.697 88.4868 195.039 66.0288 195.039 66.0288L160.29 72.7871Z" fill="#F4BE9A"/>
<path d="M179.875 83.3432L176.885 83.0143C161.992 81.3995 151.197 68.0024 152.812 53.1101L154.636 36.1245C156.251 21.2322 169.648 10.4367 184.54 12.0516L187.531 12.3805C202.423 13.9953 213.218 27.3925 211.603 42.2848L209.779 59.2704C208.164 74.1926 194.767 84.9581 179.875 83.3432Z" fill="#FCC9A7"/>
<path d="M179.875 83.3432L176.885 83.0143C161.992 81.3995 151.197 68.0024 152.812 53.1101L154.636 36.1245C156.251 21.2322 169.648 10.4367 184.54 12.0516L187.531 12.3805C202.423 13.9953 213.218 27.3925 211.603 42.2848L209.779 59.2704C208.164 74.1926 194.767 84.9581 179.875 83.3432Z" fill="#FCC9A7"/>
<path d="M153.41 47.7273C155.444 47.518 163.967 53.9774 166.18 51.1664C169.23 47.2788 172.011 40.1915 168.063 32.835C167.406 31.609 167.226 30.1736 167.645 28.8279C168.422 26.4056 170.516 23.5946 176.287 25.6281C185.528 28.8877 206.311 39.3541 212.322 24.3721C219.917 5.50252 160.169 10.7657 160.169 10.7657L146.562 30.4427L152.394 58.4928L153.41 47.7273Z" fill="#1C2226"/>
<path d="M161.727 50.568C161.158 55.891 156.374 59.7486 151.051 59.1505C145.728 58.5824 141.87 53.7977 142.468 48.4747C143.036 43.1517 147.821 39.2941 153.144 39.8922C158.467 40.4903 162.295 45.2451 161.727 50.568Z" fill="#FCC9A7"/>
<path d="M177.664 114.384L170.038 231.938L184.243 245.275L192.676 232.357L184.243 112.052L177.664 114.384Z" fill="#0C2C40"/>
<path d="M189.028 106.28L187.862 104.665L188.161 103.259H171.355L170.039 107.655L181.223 117.524L189.028 106.28Z" fill="#0C2C40"/>
<path d="M160.258 88.8454L176.167 99.6708C177.962 100.897 178.201 103.469 176.646 104.994L164.146 117.284C162.74 118.66 160.438 118.6 159.122 117.105L146.532 102.96C145.306 101.585 145.366 99.4615 146.682 98.1756L155.892 89.1744C157.059 88.0679 158.883 87.9184 160.258 88.8454Z" fill="#FCF3F0"/>
<path d="M227.664 94.4376L251.468 80.0835" stroke="#EADDD8" stroke-width="0.7599" stroke-miterlimit="10" stroke-linecap="round" stroke-linejoin="round"/>
<path d="M184.304 207.176L192.647 296.381C192.976 299.73 190.674 302.78 187.354 303.438L85.052 322.996C81.2841 323.713 77.7255 321.082 77.3068 317.284L67.9468 232.505C67.588 229.216 69.741 226.166 72.9707 225.388L176.29 201.435C180.147 200.508 183.915 203.229 184.304 207.176Z" fill="#AFAFAF"/>
<path d="M177.037 208.762L185.38 297.966C185.679 301.315 183.406 304.365 180.087 305.023L77.7844 324.581C74.0165 325.298 70.4579 322.667 70.0392 318.869L60.6792 234.09C60.3204 230.801 62.4734 227.751 65.7031 226.973L169.022 202.99C172.91 202.093 176.678 204.814 177.037 208.762Z" fill="#D1D1D1"/>
<path d="M138.428 290.849C146.652 283.313 159.451 283.881 166.987 292.105C174.523 300.329 173.955 313.128 165.731 320.664C157.507 328.199 144.708 327.631 137.172 319.408C129.637 311.154 130.205 298.385 138.428 290.849Z" fill="#FCC9A7"/>
<path d="M123.268 279.067L138.878 301.734L154.07 288.935L139.476 267.374L123.268 279.067Z" fill="#FCC9A7"/>
<path d="M128.621 110.407C128.621 110.407 105.744 112.709 99.1056 150.12L72.7899 204.785C72.0722 207.177 71.5937 209.629 71.3544 212.081L126.707 291.596L151.677 276.794L106.911 205.024L134.094 161.992L128.621 110.407Z" fill="#F7ECE7"/>
<path d="M143.543 266.058L118.334 279.575" stroke="#EADDD8" stroke-width="0.7599" stroke-miterlimit="10" stroke-linecap="round" stroke-linejoin="round"/>
<path d="M120.787 183.074L136.906 155.023" stroke="#EADDD8" stroke-width="0.7599" stroke-miterlimit="10" stroke-linecap="round" stroke-linejoin="round"/>
<path d="M206.161 31.0406C217.585 25.8672 215.192 12.5299 212.591 8.31337C212.591 8.31337 212.082 15.8194 206.969 14.0849C206.969 14.0849 207.657 2.90071 192.675 0C192.675 0 198.207 10.0478 178.5 8.13396C154.307 5.77152 152.902 21.0825 154.248 40.1016L161.664 34.7786L167.405 21.5311H186.993L206.161 31.0406Z" fill="#1C2226"/>
</svg>
